HIERARCHY
ROOT Hips
{
  OFFSET 0 89.5177 0.535
  CHANNELS 6 Xposition Yposition Zposition Zrotation Xrotation Yrotation
  JOINT Spine
  {
    OFFSET 12.0259 -0.162855 1.69034e-005
    CHANNELS 3 Zrotation Xrotation Yrotation
    JOINT Spine1
    {
      OFFSET 15.3169 -0.0121922 0
      CHANNELS 3 Zrotation Xrotation Yrotation
      JOINT Spine2
      {
        OFFSET 15.3176 -0.0121908 0
        CHANNELS 3 Zrotation Xrotation Yrotation
        JOINT Neck
        {
          OFFSET 19.9142 1.56338 0
          CHANNELS 3 Zrotation Xrotation Yrotation
          JOINT Head
          {
            OFFSET 6.92651 0 0
            CHANNELS 3 Zrotation Xrotation Yrotation
            End Site
            {
              OFFSET 20.7666 0 0
            }
          }
          JOINT LeftShoulder
          {
            OFFSET -6.20654 0.708824 7.28219
            CHANNELS 3 Zrotation Xrotation Yrotation
            JOINT LeftArm
            {
              OFFSET 14.108 0 -1.52588e-005
              CHANNELS 3 Zrotation Xrotation Yrotation
              JOINT LeftForeArm
              {
                OFFSET 28.5802 0 0
                CHANNELS 3 Zrotation Xrotation Yrotation
                JOINT LeftHand
                {
                  OFFSET 27.092 0 0
                  CHANNELS 3 Zrotation Xrotation Yrotation
                  End Site
                  {
                    OFFSET 9.55928 -0.186424 0.145352
                  }
                }
              }
            }
          }
          JOINT RightShoulder
          {
            OFFSET -6.20654 0.708866 -7.28218
            CHANNELS 3 Zrotation Xrotation Yrotation
            JOINT RightArm
            {
              OFFSET 14.108 0 1.52588e-005
              CHANNELS 3 Zrotation Xrotation Yrotation
              JOINT RightForeArm
              {
                OFFSET 28.5802 0 0
                CHANNELS 3 Zrotation Xrotation Yrotation
                JOINT RightHand
                {
                  OFFSET 27.092 0 0
                  CHANNELS 3 Zrotation Xrotation Yrotation
                  End Site
                  {
                    OFFSET 9.55929 -0.186417 -0.145354
                  }
                }
              }
            }
          }
        }
      }
    }
  }
  JOINT LeftUpLeg
  {
    OFFSET 0.005 -0.535 8.837
    CHANNELS 3 Zrotation Xrotation Yrotation
    JOINT LeftLeg
    {
      OFFSET 39.9035 0 0
      CHANNELS 3 Zrotation Xrotation Yrotation
      JOINT LeftFoot
      {
        OFFSET 39.6689 0 0
        CHANNELS 3 Zrotation Xrotation Yrotation
        JOINT LeftToe
        {
          OFFSET 10.1624 13.6296 0
          CHANNELS 3 Zrotation Xrotation Yrotation
          End Site
          {
            OFFSET 8.38147 0 0
          }
        }
      }
    }
  }
  JOINT RightUpLeg
  {
    OFFSET 0.005 -0.535 -8.837
    CHANNELS 3 Zrotation Xrotation Yrotation
    JOINT RightLeg
    {
      OFFSET 39.9035 0 0
      CHANNELS 3 Zrotation Xrotation Yrotation
      JOINT RightFoot
      {
        OFFSET 39.6689 0 0
        CHANNELS 3 Zrotation Xrotation Yrotation
        JOINT RightToe
        {
          OFFSET 10.1624 13.6296 0
          CHANNELS 3 Zrotation Xrotation Yrotation
          End Site
          {
            OFFSET 8.38147 0 0
          }
        }
      }
    }
  }
}
MOTION
Frames:	14
Frame Time:	0.0333333
165.115 84.6155 149.073 -108.834 -54.5088 167.308 1.46141 -1.36454 -0.256448 2.91794 -2.73468 -0.478043 2.91794 -2.73468 -0.478053 -8.30589e-012 -9.0191e-006 -5.27751e-005 -6.64975 -2.81027 -4.34513 -177.086 -19.5517 -81.3523 -78.8761 -61.0065 25.6166 -51.4405 -3.18055e-015 3.18055e-015 -59.593 -62.2112 -67.0073 -178.759 11.4536 83.7767 -60.6561 59.2969 -36.0582 -58.8657 7.15625e-015 3.18055e-015 -87.7139 61.7136 93.8745 -30.5213 6.36104 -162.47 -44.0206 3.18055e-015 -3.18055e-015 12.5478 9.79956 -14.9213 90 0 -3.18055e-015 -34.0087 -11.0691 157.589 -36.0399 -9.54167e-015 -3.18056e-015 13.1945 -3.77138 6.3781 90 7.95139e-016 6.36111e-015 
163.11 83.9716 148.382 -108.946 -51.9553 166.604 1.2247 -1.34136 -0.289076 2.44363 -2.68811 -0.549472 2.44363 -2.68811 -0.549481 -8.30907e-012 -9.0191e-006 -5.27751e-005 -5.07203 -1.73884 -4.00852 -177.031 -19.5478 -81.1883 -72.9968 -60.5761 33.2445 -53.5086 -3.18055e-015 3.18055e-015 -61.7191 -61.4804 -69.4554 -178.621 11.5761 83.1575 -55.9431 57.2269 -43.191 -59.8283 -9.14409e-015 -6.36111e-015 -88.2357 61.8523 94.4451 -25.4536 3.97116 -162.518 -40.2493 -3.18055e-015 -3.18055e-015 19.6644 11.1324 -17.3093 90 0 6.36111e-015 -35.5384 -9.8929 157.749 -35.4687 0 -3.18056e-015 11.6482 -5.10955 8.21211 90 -1.59028e-015 3.18055e-015 
161.155 83.0388 147.697 -108.624 -48.5353 166.188 1.13209 -1.15464 -0.286337 2.25908 -2.31422 -0.549808 2.25908 -2.31422 -0.549817 -8.31066e-012 -9.0191e-006 -5.27751e-005 -4.70402 -0.809299 -3.20097 -177.1 -19.5265 -81.3806 -66.394 -51.5505 40.323 -62.9339 -6.36111e-015 6.36111e-015 -66.5564 -64.0522 -74.8124 -178.169 11.9981 81.2554 -51.2413 48.5059 -49.4876 -68.0006 5.56597e-015 6.36111e-015 -91.4091 61.9961 98.016 -22.8672 5.6098 -162.127 -37.1691 3.18055e-015 -7.95139e-016 26.6291 10.3331 -16.3042 90 -1.98785e-016 9.54166e-015 -37.8829 -9.43867 157.924 -35.2867 3.18056e-015 -0 10.0684 -7.83254 11.8963 90 0 -0 
159.37 82.3376 147.594 -109.47 -45.3074 165.106 1.16451 -1.15194 -0.40636 2.32154 -2.31141 -0.789299 2.32154 -2.31141 -0.789308 -8.30907e-012 -9.0191e-006 -5.27751e-005 -6.78326 -0.590873 -0.480457 -177.254 -19.6872 -81.8961 -61.8985 -35.6011 45.5402 -80.735 0 -4.77083e-015 -77.518 -56.8256 -88.4878 -177.646 11.4621 78.3145 -42.0721 32.8519 -56.8447 -89.5592 -4.77083e-015 -0 -93.6622 52.2487 102.917 -26.4382 8.78894 -160.903 -40.6082 -3.18055e-015 -3.18055e-015 29.4504 9.90277 -15.6888 90 4.96962e-017 6.36111e-015 -41.1169 -9.34316 158.419 -35.3209 -3.18056e-015 3.18056e-015 9.04449 -9.183 13.8961 90 -3.97569e-016 9.54166e-015 
157.884 82.3737 147.533 -110.861 -43.7413 163.627 1.46296 -1.56711 -0.431833 2.91571 -3.14422 -0.823796 2.91571 -3.14422 -0.823806 -8.30112e-012 -9.0191e-006 -5.27751e-005 -10.9322 -0.699749 2.16573 -176.881 -19.6864 -80.8119 -55.6174 -24.5853 52.0276 -94.3307 -3.18055e-015 3.18055e-015 -76.6643 -60.0835 -86.9626 -176.477 12.6947 74.3484 -37.5726 20.349 -58.3142 -101.825 -1.59028e-015 3.18055e-015 -95.7531 50.7325 105.968 -29.8046 10.0951 -159.977 -42.7766 6.36111e-015 3.18055e-015 30.0174 10.6903 -16.9208 90 0 -0 -44.197 -12.6548 158.177 -34.9821 0 1.59028e-015 10.0492 -6.86957 10.3968 90 -3.97569e-016 -1.59028e-014 
156.99 82.9336 147.349 -110.888 -42.216 162.52 1.60695 -2.10802 -0.33324 3.20488 -4.22406 -0.607615 3.20488 -4.22406 -0.607625 -8.3043e-012 -9.0191e-006 -5.27751e-005 -11.113 -0.596448 5.1401 -176.761 -20.1555 -80.6741 -53.6627 -14.7892 56.1097 -100.169 0 7.95139e-016 -78.1872 -58.2935 -89.0593 -175.698 14.1202 72.8643 -35.4267 9.26122 -58.7798 -106.982 7.95139e-016 6.36111e-015 -96.4286 50.3061 106.954 -29.4688 10.9349 -159.339 -40.7984 -6.36111e-015 -1.59028e-015 30.0583 10.124 -16.0086 90 2.48481e-016 -0 -46.5514 -18.8632 158.169 -34.9035 -3.18056e-015 -0 11.018 -2.09858 4.83068 90 2.38542e-015 -6.36111e-015 
156.645 84.1694 147.178 -110.083 -39.0921 162.735 1.76202 -2.42969 -0.274287 3.51713 -4.86618 -0.474082 3.51713 -4.86618 -0.474092 -8.31066e-012 -9.0191e-006 -5.27751e-005 -10.3362 0.534968 6.35685 -177.255 -19.838 -81.9584 -50.5477 -6.91459 61.0051 -102.448 -7.95139e-016 6.83322e-017 -77.3322 -58.0184 -88.076 -175.463 15.1735 73.1333 -34.9795 0.34771 -58.5356 -109.228 3.18055e-015 9.54166e-015 -96.4565 50.1436 107.04 -28.3124 13.377 -158.673 -37.8027 0 3.18055e-015 27.6095 9.24687 -14.555 90 0 1.27222e-014 -47.4 -23.7364 159.557 -34.3588 -3.18056e-015 1.59028e-015 11.6691 1.40556 -1.84521 90 1.59028e-015 -0 
156.714 85.8799 147.145 -108.614 -34.3071 163.906 1.86769 -2.49533 -0.292379 3.72793 -4.99836 -0.50368 3.72793 -4.99836 -0.503689 -8.30191e-012 -9.0191e-006 -5.27751e-005 -9.35548 2.83364 6.58237 -177.389 -19.8611 -82.3557 -47.935 0.604454 64.7994 -103.272 0 -1.59028e-015 -76.4763 -57.8362 -87.0723 -175.43 16.0492 73.874 -35.5521 -6.64379 -59.2546 -110.347 0 -1.27222e-014 -96.7271 51.0415 107.101 -25.7131 16.9524 -158.482 -32.9768 3.18055e-015 -3.18055e-015 23.0487 7.37942 -11.5711 90 2.98177e-016 -9.54166e-015 -46.5783 -23.8393 162.075 -35.1854 0 -0 11.2024 0.278548 -0.240013 90 1.59028e-015 -1.59028e-015 
157.076 87.7755 147.395 -106.729 -30.0784 164.687 2.13546 -2.35119 -0.137795 4.27067 -4.70541 -0.187817 4.27067 -4.70541 -0.187826 -8.29555e-012 -9.0191e-006 -5.27751e-005 -8.09743 4.14681 6.41897 -177.201 -19.9167 -81.8323 -46.7224 5.77758 67.8921 -102.13 -2.38542e-015 -1.59028e-015 -75.6678 -58.4255 -86.0207 -175.573 16.2423 74.5277 -34.6847 -12.6076 -60.5646 -111.623 -1.59028e-015 -0 -96.5584 51.6605 106.697 -23.1069 17.8545 -158.342 -30.1997 3.18055e-015 3.97569e-015 17.7703 4.19925 -7.03802 90 -1.98785e-016 -3.18055e-015 -44.5736 -23.5595 164.741 -36.9291 2.38542e-015 -1.59028e-015 11.0914 -1.19129 1.87824 90 -7.95139e-016 -0 
157.45 89.5855 147.979 -105.038 -27.8112 165.308 2.53377 -2.27779 -0.0222745 5.07268 -4.55385 0.0565482 5.07268 -4.55385 0.056539 -8.3043e-012 -9.0191e-006 -5.27751e-005 -7.01376 4.12162 7.34561 -176.978 -20.0669 -81.2528 -46.8415 8.41008 70.3635 -99.691 0 -0 -73.5538 -59.8463 -83.3279 -175.361 16.4041 73.97 -32.1709 -17.7554 -60.7854 -112.598 -3.18055e-015 -6.36111e-015 -96.47 52.2293 106.413 -24.9584 16.9827 -156.868 -34.8769 -3.18055e-015 1.59028e-015 11.9488 1.99535 -4.65367 90 0 -0 -42.1943 -24.2234 166.034 -38.6416 -1.98785e-016 -0 10.6522 -1.26855 1.98131 90 7.95139e-016 -0 
157.387 90.7097 148.757 -105.168 -27.2764 165.973 2.8207 -2.41506 -0.0845752 5.64538 -4.83087 -0.0499033 5.64538 -4.83087 -0.0499126 -8.31384e-012 -9.0191e-006 -5.27751e-005 -6.69724 2.97278 8.1311 -176.986 -19.994 -81.2466 -47.7812 9.08369 71.8187 -96.5128 -1.59028e-015 3.18055e-015 -71.2452 -60.7237 -80.519 -175.03 16.9425 73.3856 -29.6174 -20.9306 -61.5844 -112.47 0 -3.18055e-015 -96.1441 52.5159 105.923 -31.4434 14.9301 -156.316 -43.9506 3.18055e-015 -1.59028e-015 4.59055 -0.356868 -1.50622 90 -1.59028e-015 -3.18055e-015 -41.9069 -23.7516 165.245 -41.1661 1.38217e-015 -0 10.6912 0.0219667 0.118346 90 1.59028e-015 1.98785e-016 
156.707 90.5633 149.479 -107.103 -27.6291 166.542 2.93117 -2.61453 -0.153342 5.86452 -5.23301 -0.172619 5.86452 -5.23301 -0.172628 -8.30947e-012 -9.0191e-006 -5.27751e-005 -7.48347 1.44887 7.97721 -177.212 -19.6201 -81.7465 -49.5141 8.13874 72.6056 -93.1795 3.18055e-015 9.54166e-015 -69.187 -61.852 -78.015 -175.014 17.5216 73.8412 -26.8125 -22.6317 -63.3689 -112.271 3.18055e-015 9.54166e-015 -96.0444 52.8509 105.701 -37.8073 11.2354 -158.218 -50.6183 1.27222e-014 -1.59028e-015 6.4765 4.31075 -6.43254 90 -4.77083e-015 -0 -44.2765 -21.6286 162.451 -44.5468 -2.48481e-016 1.59028e-015 11.6086 -0.45341 0.844827 90 -1.59028e-015 -3.97569e-016 
155.891 89.3465 150.074 -108.885 -27.6344 167.319 3.09233 -2.69526 -0.146935 6.18804 -5.39404 -0.148024 6.18804 -5.39404 -0.148033 -8.30947e-012 -9.0191e-006 -5.27751e-005 -9.1633 0.032065 7.69282 -177.167 -19.6093 -81.6116 -51.6199 6.17835 72.5647 -89.6204 -3.18055e-015 -0 -67.76 -63.1251 -76.2547 -175.165 17.6045 74.3741 -23.6288 -23.4076 -64.5103 -112.146 0 -0 -96.1012 53.1775 105.676 -42.2014 7.70358 -161.006 -51.2615 3.18055e-015 -1.59028e-015 13.7075 7.90656 -11.9076 90 -1.59028e-015 -6.36111e-015 -45.8903 -17.9114 159.982 -46.2153 3.97569e-016 1.59028e-015 13.5092 -1.2001 2.00806 90 0 -1.59028e-015 
155.078 87.4379 150.605 -110.207 -26.8325 168.555 3.25497 -2.66432 -0.219165 6.51033 -5.33631 -0.286678 6.51033 -5.33631 -0.286687 -8.3039e-012 -9.0191e-006 -5.27751e-005 -10.7955 -0.851883 7.60021 -177.056 -19.4808 -81.2343 -53.2936 3.75998 72.3048 -85.3774 0 -3.18055e-015 -66.1586 -63.4917 -74.3984 -175.43 16.9497 74.6681 -20.9425 -23.0371 -65.1691 -110.989 3.18055e-015 -3.18055e-015 -95.8964 52.9484 105.491 -43.6126 3.9522 -164.037 -44.7468 6.36111e-015 7.95139e-016 18.2333 9.15367 -14.02 90 -3.97569e-016 -3.18055e-015 -46.6008 -13.1956 158.378 -46.1087 3.97569e-016 -3.18056e-015 15.2131 1.00239 -1.09666 90 0 -0 
